<svg width="34" height="34" viewBox="0 0 34 34" fill="none" xmlns="http://www.w3.org/2000/svg">
<path d="M16.577 3.01781e-08C13.2985 -0.000197754 10.0936 0.9718 7.3676 2.79307C4.64156 4.61435 2.51682 7.2031 1.26207 10.2319C0.00731564 13.2608 -0.321087 16.5937 0.318389 19.8092C0.957865 23.0247 2.5365 25.9784 4.85465 28.2966C7.17281 30.6149 10.1264 32.1938 13.3418 32.8334C16.5573 33.4731 19.8902 33.1449 22.9191 31.8903C25.9481 30.6358 28.5369 28.5112 30.3584 25.7852C32.1798 23.0593 33.152 19.8545 33.152 16.576C33.152 12.1799 31.4058 7.96393 28.2974 4.85535C25.189 1.74678 20.9731 0.000265236 16.577 3.01781e-08Z" fill="#FFCB32"/>
<path d="M18.084 17.777H21.927L22.527 13.877H18.083V11.74C18.083 10.118 18.613 8.68 20.13 8.68H22.568V5.272C21.5583 5.13545 20.5398 5.07362 19.521 5.087C15.947 5.087 13.851 6.975 13.851 11.275V13.875H10.178V17.775H13.852V28.508C14.5867 28.6248 15.3291 28.6863 16.073 28.692C16.7457 28.6866 17.4172 28.6358 18.083 28.54L18.084 17.777Z" fill="black"/>
</svg>
