<svg width="34" height="34" viewBox="0 0 34 34" fill="none" xmlns="http://www.w3.org/2000/svg">
<path d="M11.6127 33.151C11.8772 33.0361 12.1023 32.8463 12.2603 32.605C12.4183 32.3637 12.5022 32.0814 12.5017 31.793V27.8C12.5028 27.6492 12.5128 27.4986 12.5317 27.349L12.5017 27.356H9.85569C9.35564 27.3942 8.85504 27.2893 8.41236 27.0536C7.96968 26.818 7.60319 26.4612 7.35569 26.025C6.84169 25.064 6.62069 23.437 5.29769 22.55C5.07769 22.402 5.22469 22.18 5.66469 22.18C6.46577 22.4524 7.16066 22.9702 7.65069 23.66C7.91492 24.092 8.28094 24.4526 8.71675 24.7104C9.15255 24.9683 9.64488 25.1154 10.1507 25.139C11.3004 25.2515 12.4607 25.1115 13.5507 24.729C13.8144 24.2407 14.1903 23.8221 14.6476 23.5078C15.1049 23.1934 15.6304 22.9923 16.1807 22.921V22.9C12.0077 22.768 9.34969 21.375 8.10769 19.224C5.97217 19.2437 3.84089 19.4185 1.73069 19.747C1.68803 19.505 1.65103 19.2617 1.61969 19.017C3.64949 18.7005 5.69867 18.524 7.75269 18.489C7.66995 18.2837 7.59851 18.0741 7.53869 17.861C5.53354 17.757 3.52379 17.7811 1.52169 17.933C1.50669 17.688 1.48669 17.443 1.48469 17.194C3.44548 17.0456 5.41354 17.0183 7.37769 17.112C7.31458 16.7349 7.28114 16.3534 7.27769 15.971C7.2978 14.6376 7.73452 13.3438 8.52669 12.271C8.15969 11.014 7.64469 8.352 8.67369 7.391C10.1656 7.39696 11.6036 7.94946 12.7157 8.944C14.0439 8.39776 15.4675 8.12107 16.9037 8.13C18.3172 8.11344 19.7187 8.39027 21.0197 8.943C22.1318 7.94846 23.5698 7.39596 25.0617 7.39C26.1617 8.425 25.5757 11.09 25.2087 12.27C26.0216 13.3277 26.4377 14.6371 26.3847 15.97C26.3822 16.3188 26.3552 16.667 26.3037 17.012C28.313 16.9113 30.3266 16.9364 32.3327 17.087C32.3327 17.336 32.3087 17.579 32.2957 17.826C30.2516 17.671 28.1996 17.6489 26.1527 17.76C26.0881 18.0064 26.0083 18.2485 25.9137 18.485C28.017 18.509 30.116 18.6791 32.1957 18.994C32.1644 19.2393 32.1274 19.4827 32.0847 19.724C29.9249 19.3975 27.744 19.2304 25.5597 19.224C24.3357 21.352 21.7237 22.74 17.6397 22.902V22.925C19.5507 22.925 21.3147 25.809 21.3147 27.805V31.798C21.3142 32.0864 21.3981 32.3687 21.5561 32.61C21.7141 32.8513 21.9392 33.0411 22.2037 33.156C26.0268 31.8781 29.2721 29.2846 31.3616 25.8374C33.451 22.3902 34.2489 18.3132 33.6131 14.3326C32.9773 10.3521 30.949 6.72648 27.8897 4.10169C24.8304 1.4769 20.9386 0.0233573 16.9077 0C12.879 0.0258869 8.99021 1.48027 5.93324 4.10434C2.87627 6.72841 0.849448 10.352 0.213431 14.3302C-0.422586 18.3084 0.373463 22.3833 2.45992 25.8296C4.54638 29.276 7.78791 31.8703 11.6077 33.151H11.6127Z" fill="#FFCB32"/>
</svg>
