<svg width="42" height="42" viewBox="0 0 42 42" fill="none" xmlns="http://www.w3.org/2000/svg">
<g filter="url(#filter0_d)">
<path d="M36.797 13.3303H35.466V13.2613H20.543V19.8923H29.911C29.2019 21.9048 27.8649 23.6361 26.0972 24.8311C24.3294 26.026 22.2245 26.6213 20.0928 26.5291C17.961 26.437 15.9153 25.6622 14.2573 24.3192C12.5993 22.9761 11.4167 21.1358 10.884 19.0697C10.3512 17.0035 10.4965 14.8209 11.2984 12.8436C12.1003 10.8662 13.5163 9.19893 15.3377 8.08748C17.1591 6.97603 19.2895 6.47927 21.4146 6.67045C23.5397 6.86163 25.5472 7.73064 27.141 9.14933L31.83 4.46033C29.0415 1.87028 25.446 0.319743 21.6484 0.0696C17.8509 -0.180543 14.0831 0.884978 10.9789 3.08688C7.8748 5.28878 5.62382 8.49268 4.60474 12.1595C3.58566 15.8263 3.86067 19.7322 5.3835 23.22C6.90633 26.7079 9.58404 29.5648 12.9661 31.31C16.3481 33.0552 20.2281 33.5822 23.9531 32.8024C27.6782 32.0226 31.0209 29.9836 33.419 27.0284C35.817 24.0731 37.124 20.3821 37.12 16.5763C37.1186 15.4864 37.0104 14.3992 36.797 13.3303Z" fill="#FFCB32"/>
<path d="M5.877 8.86133L11.323 12.8553C11.9172 11.3769 12.8586 10.0632 14.0677 9.02536C15.2767 7.9875 16.7179 7.25597 18.2693 6.89259C19.8207 6.5292 21.4368 6.54465 22.981 6.93763C24.5251 7.3306 25.952 8.08955 27.141 9.15033L31.83 4.46133C29.9693 2.72098 27.7317 1.43389 25.2918 0.700411C22.8519 -0.0330654 20.2755 -0.19311 17.7636 0.232756C15.2517 0.658622 12.872 1.65889 10.8102 3.15558C8.74841 4.65226 7.06013 6.60493 5.877 8.86133Z" fill="#FFCB32"/>
<path d="M20.543 33.1543C24.654 33.1556 28.6174 31.6221 31.657 28.8543L26.526 24.5133C25.2837 25.4548 23.837 26.0903 22.3032 26.3683C20.7694 26.6462 19.1917 26.5588 17.698 26.1131C16.2043 25.6674 14.8366 24.876 13.7059 23.803C12.5752 22.73 11.7133 21.4057 11.19 19.9373L5.785 24.1023C7.1707 26.8255 9.28265 29.1124 11.8872 30.7099C14.4918 32.3075 17.4875 33.1535 20.543 33.1543Z" fill="#FFCB32"/>
<path d="M36.797 13.3303H35.462V13.2613H20.543V19.8923H29.911C29.2573 21.7292 28.0798 23.3342 26.524 24.5093L31.655 28.8503C33.399 27.3214 34.7906 25.4324 35.7337 23.3135C36.6769 21.1946 37.1492 18.8964 37.118 16.5773C37.1173 15.4871 37.0098 14.3996 36.797 13.3303Z" fill="#FFCB32"/>
</g>
<defs>
<filter id="filter0_d" x="0" y="0" width="41.12" height="41.1543" filterUnits="userSpaceOnUse" color-interpolation-filters="sRGB">
<feFlood flood-opacity="0" result="BackgroundImageFix"/>
<feColorMatrix in="SourceAlpha" type="matrix" values="0 0 0 0 0 0 0 0 0 0 0 0 0 0 0 0 0 0 127 0"/>
<feOffset dy="4"/>
<feGaussianBlur stdDeviation="2"/>
<feColorMatrix type="matrix" values="0 0 0 0 0 0 0 0 0 0 0 0 0 0 0 0 0 0 0.25 0"/>
<feBlend mode="normal" in2="BackgroundImageFix" result="effect1_dropShadow"/>
<feBlend mode="normal" in="SourceGraphic" in2="effect1_dropShadow" result="shape"/>
</filter>
</defs>
</svg>
